 <svg  version="1.0" xmlns="http://www.w3.org/2000/svg"  width="215.000000pt" height="185.000000pt" viewBox="0 0 215.000000 185.000000"  preserveAspectRatio="xMidYMid meet">  <g transform="translate(0.000000,185.000000) scale(0.050000,-0.050000)" fill="#d50ce4" stroke="none"> <path d="M0 1850 l0 -1850 2150 0 2150 0 0 1850 0 1850 -2150 0 -2150 0 0 -1850z m4260 0 l0 -1810 -2110 0 -2110 0 0 1810 0 1810 2110 0 2110 0 0 -1810z"/> <path d="M320 2300 l0 -1100 300 0 300 0 0 -130 0 -130 -80 0 c-78 0 -80 -2 -80 -70 l0 -70 1340 0 1340 0 0 70 c0 67 -3 70 -70 70 l-70 0 0 130 0 130 300 0 300 0 0 1100 0 1100 -1790 0 -1790 0 0 -1100z m3480 0 l0 -1000 -1690 0 -1690 0 0 1000 0 1000 1690 0 1690 0 0 -1000z m-2460 -1200 c0 -55 -6 -60 -70 -60 -64 0 -70 5 -70 60 0 55 6 60 70 60 64 0 70 -5 70 -60z m-180 -41 l0 -61 105 6 c98 6 105 10 111 61 l7 55 908 0 909 0 0 -80 0 -80 -1090 0 -1090 0 0 80 c0 78 2 80 70 80 65 0 70 -5 70 -61z"/> <path d="M520 2300 l0 -940 1590 0 1590 0 0 940 0 940 -1590 0 -1590 0 0 -940z m3080 0 l0 -840 -1490 0 -1490 0 0 840 0 840 1490 0 1490 0 0 -840z"/> <path d="M1413 2747 c-7 -8 -13 -201 -13 -430 l0 -417 -250 0 -250 0 0 101 c0 116 -29 140 -108 88 -69 -45 -79 -266 -13 -283 21 -5 43 -23 49 -38 15 -40 622 -41 646 -1 9 14 32 32 51 39 60 22 52 812 -9 895 -43 58 -76 72 -103 46z"/> <path d="M1824 2701 c-70 -95 -66 -782 5 -869 81 -99 111 -62 111 137 l0 171 231 0 c321 0 309 -11 309 286 -1 334 0 334 -354 334 l-258 0 -44 -59z m496 -251 l0 -150 -190 0 -190 0 0 150 0 150 190 0 190 0 0 -150z"/> <path d="M2745 2712 c-44 -46 -45 -60 -45 -456 l0 -408 59 -44 c74 -55 593 -68 613 -16 6 15 29 33 51 39 26 6 38 23 33 47 -6 33 -35 37 -301 42 l-295 5 0 339 0 339 295 5 c262 5 295 10 301 41 4 20 -9 41 -30 49 -20 7 -43 25 -52 39 -33 55 -575 36 -629 -21z"/> <path d="M1460 1050 c0 -19 19 -30 50 -30 31 0 50 11 50 30 0 19 -19 30 -50 30 -31 0 -50 -11 -50 -30z"/> <path d="M3805 665 c7 -30 -4 -34 -88 -28 l-97 7 0 -172 0 -172 210 0 210 0 0 170 0 170 -80 0 c-58 0 -80 8 -80 30 0 17 -18 30 -42 30 -31 0 -40 -10 -33 -35z m-45 -165 c0 -22 10 -40 22 -40 12 0 26 18 32 40 21 79 126 54 126 -30 l0 -70 -110 0 -110 0 0 70 c0 39 9 70 20 70 11 0 20 -18 20 -40z"/> <path d="M400 600 c0 -11 -31 -20 -70 -20 l-70 0 0 -130 0 -130 1630 0 1630 0 0 130 0 130 -70 0 c-38 0 -70 9 -70 20 0 11 -22 20 -50 20 -27 0 -50 -9 -50 -20 0 -11 -18 -20 -40 -20 -22 0 -40 9 -40 20 0 11 -22 20 -50 20 -27 0 -50 -9 -50 -20 0 -11 -18 -20 -40 -20 -22 0 -40 9 -40 20 0 11 -22 20 -50 20 -27 0 -50 -9 -50 -20 0 -11 -18 -20 -40 -20 -22 0 -40 9 -40 20 0 11 -22 20 -50 20 -27 0 -50 -9 -50 -20 0 -11 -18 -20 -40 -20 -22 0 -40 9 -40 20 0 11 -22 20 -50 20 -27 0 -50 -9 -50 -20 0 -11 -18 -20 -40 -20 -22 0 -40 9 -40 20 0 11 -22 20 -50 20 -27 0 -50 -9 -50 -20 0 -11 -18 -20 -40 -20 -22 0 -40 9 -40 20 0 11 -22 20 -50 20 -27 0 -50 -9 -50 -20 0 -11 -18 -20 -40 -20 -22 0 -40 9 -40 20 0 11 -22 20 -50 20 -27 0 -50 -9 -50 -20 0 -11 -18 -20 -40 -20 -22 0 -40 9 -40 20 0 11 -22 20 -50 20 -27 0 -50 -9 -50 -20 0 -11 -18 -20 -40 -20 -22 0 -40 9 -40 20 0 11 -22 20 -50 20 -27 0 -50 -9 -50 -20 0 -11 -18 -20 -40 -20 -22 0 -40 9 -40 20 0 11 -22 20 -50 20 -27 0 -50 -9 -50 -20 0 -11 -18 -20 -40 -20 -22 0 -40 9 -40 20 0 11 -22 20 -50 20 -27 0 -50 -9 -50 -20 0 -11 -18 -20 -40 -20 -22 0 -40 9 -40 20 0 11 -22 20 -50 20 -27 0 -50 -9 -50 -20 0 -11 -18 -20 -40 -20 -22 0 -40 9 -40 20 0 11 -22 20 -50 20 -27 0 -50 -9 -50 -20 0 -11 -18 -20 -40 -20 -22 0 -40 9 -40 20 0 11 -22 20 -50 20 -27 0 -50 -9 -50 -20 0 -11 -18 -20 -40 -20 -22 0 -40 9 -40 20 0 11 -22 20 -50 20 -27 0 -50 -9 -50 -20 0 -11 -18 -20 -40 -20 -22 0 -40 9 -40 20 0 11 -22 20 -50 20 -27 0 -50 -9 -50 -20z m3020 -150 c0 -26 -183 -30 -1530 -30 -1347 0 -1530 4 -1530 30 0 26 183 30 1530 30 1347 0 1530 -4 1530 -30z"/> </g> </svg> 